<svg id="af00d2bc-1a74-4412-a239-a90d1c4a6a3a" data-name="Layer 1" xmlns="http://www.w3.org/2000/svg" width="865.76" height="682.89" viewBox="0 0 865.76 682.89"><path d="M552.83,311.86c6.29,7.11,11.49,2.88,11.49,2.88.24-.16.47-.33.69-.5a12.9,12.9,0,0,0,1.63-18.81c-9.38-10.44-29.92-43.36-29.92-43.36l-13,1.24Z" fill="#2f2e41"/><path d="M552.83,311.86c6.29,7.11,11.49,2.88,11.49,2.88.24-.16.47-.33.69-.5a12.9,12.9,0,0,0,1.63-18.81c-9.38-10.44-29.92-43.36-29.92-43.36l-13,1.24Z" opacity="0.2"/><polygon points="179.83 276.98 179.83 364.27 190.05 369.84 190.05 283.17 179.83 276.98" fill="#bcbec0"/><polygon points="253.5 232.1 179.83 276.98 190.05 283.17 263.1 238.91 253.5 232.1" fill="#bcbec0"/><polygon points="190.05 369.84 265.26 326.2 263.1 238.91 190.05 283.17 190.05 369.84" fill="#d1d3d4"/><path d="M217.6,326.51s-5.89,12.07-9.29,13.62c0,0,26-4.34,35.91-51.39,0,0,.62-9.9,4.95-13.31,0,0-5.26,1.86-3.1-1.24,0,0-4,2-6,1.71,0,0-13-.43-12.54,17.73a5.15,5.15,0,0,1-2.46,4.59c-3.17,1.89-9.24,3.91-18.28.32,0,0-2.27,8.88,2.48,13.21,0,0-.62,1.24-3.92,1.24,0,0,1.65,7.64,8.46,7,0,0-.21,2.27-3.72,3.4C210.06,323.41,211.3,327.44,217.6,326.51Z" fill="#fff"/><polygon points="233.78 465.99 256.13 452.44 323.86 492.81 304.23 506.3 233.78 465.99" fill="#ccc"/><polygon points="184.94 439.29 193.74 444.09 357.18 348.98 347 341.64 184.94 439.29" fill="#ccc"/><polygon points="161.26 423.7 341.72 318.04 351.01 342.91 188.92 439.29 161.26 423.7" fill="#2f2e41"/><polygon points="161.26 423.7 341.72 318.04 351.01 342.91 188.92 439.29 161.26 423.7" opacity="0.21"/><path d="M263.83,452.44l96.9-57.11s.56,57.3-13.73,104.17Z" fill="#e6e7e8"/><polygon points="264.81 528.12 431.9 621.91 650.02 494.36 589.51 461.44 430.08 554.38 385.4 529.03 360.73 543.19 297.87 507.68 264.81 528.12" fill="#e6e7e8"/><polygon points="657.04 490.25 431.9 621.91 431.9 629.75 657.04 497.68 657.04 490.25" fill="#3f3d56"/><polygon points="231.91 509.66 431.9 621.91 431.9 629.75 231.91 517.49 231.91 509.66" fill="#3f3d56"/><polygon points="231.91 509.66 431.9 621.91 431.9 629.75 231.91 517.49 231.91 509.66" fill="#fff" opacity="0.2"/><polygon points="589.51 461.44 650.02 494.36 657.04 490.25 597.84 456.59 589.51 461.44" fill="#3f3d56"/><polygon points="589.51 461.44 650.02 494.36 657.04 490.25 597.84 456.59 589.51 461.44" fill="#fff" opacity="0.2"/><path d="M635.69,411.93l12.46,7.17L503.3,503.89V484.14l-15.71-8.67a241.52,241.52,0,0,1,4.75-28.53c2-8.92,3.21-16.6,6.89-24.34l6.33-8.7s48.49,27,73.57,9.1c0,0,12.8-8.39,9.37-38.25Z" fill="#e6e7e8"/><polygon points="587.51 374.04 657.04 413.9 648.15 419.1 588.5 384.75 587.51 374.04" fill="#2f2e41"/><path d="M505.56,413.9s52.71,29,75.82,7.2c0,0,13.52-11.68,5.69-52.81,0,0-4.82-38.57-12.8-53.55,0,0-16.35,15.14-40.18,10,0,0-3,47.88,2.35,60L514.85,374.6" fill="#eb148e"/><path d="M462.44,299.58s24.12-.75,39.19,15.16l-41.25,57.89-41.89-35.91s7.87-7.38,6.4-18.68c0,0,13.87,13.48,29.83,2.23C454.72,320.27,465.14,314.69,462.44,299.58Z" fill="#eb148e"/><path d="M448.46,245.18l14,54.4c3.08,12.92-6,23.33-19.19,25.07h0c-9.42,1.25-21.26-6.51-25.57-15l-10-19.68-2-32.78Z" fill="#f9b499"/><path d="M519,302.39s-9.22-3.33-10.61,3.64a8.07,8.07,0,0,0,1.2,5.88c2.4,3.79,8.48,11.66,20.4,17.71,0,0,14.59,9.27,22.83,2.62,0,0,3.6-6.66-5.91-14.12Z" fill="#eb148e"/><path d="M519,302.39s-9.22-3.33-10.61,3.64a8.07,8.07,0,0,0,1.2,5.88c2.4,3.79,8.48,11.66,20.4,17.71,0,0,14.59,9.27,22.83,2.62,0,0,3.6-6.66-5.91-14.12Z" fill="#fff" opacity="0.2"/><path d="M517.34,307.62s4.33,14.86,27.44,19c0,0,22.16-28.33,34.74-42.46a6.86,6.86,0,0,0,.31-8.76l-17.18-22.22a6.85,6.85,0,0,0-8.64-1.86c-5.94,3.13-15.56,10.13-22.78,24.66a34,34,0,0,0-2,4.94C527.45,286.59,522.33,301.8,517.34,307.62Z" fill="#f9b499"/><path d="M598.85,253.56c5,2.49-22.51-.24-27.76-.85-1-.11-2-.28-2.94-.46-15.17-2.91-26.12-.19-31.32,1.7a6.89,6.89,0,0,1-7.2-1.48c-10.49-10.32-9.07-30.71-7.85-39.59a11.29,11.29,0,0,1,7.58-9.21l.15,0S547.05,195.16,566,176c0,0,8.46-8.46,14.44-10.53,0,0-9.24,3.42-5.92,42.54a35.31,35.31,0,0,0,.55,3.83C576.65,219.59,582.93,245.69,598.85,253.56Z" fill="#2f2e41"/><ellipse cx="595.03" cy="207.85" rx="20.29" ry="46.91" transform="translate(-28.53 116.04) rotate(-10.88)" fill="#d1d3d4"/><path d="M531.4,254l-9,.36C511,250.88,512,218.06,512,218.06c0-3.71,10.43-7.63,10.43-7.63S515.53,240.49,531.4,254Z" fill="#d1d3d4"/><polygon points="617.83 358.39 617.83 271.1 693.36 314.74 693.36 402.96 617.83 358.39" fill="#d1d3d4"/><polygon points="630.22 263.05 617.83 271.1 693.36 314.74 704.5 307.01 630.22 263.05" fill="#bcbec0"/><polygon points="693.36 402.96 704.5 395.53 704.5 307.01 693.36 314.74 693.36 402.96" fill="#bcbec0"/><path d="M657.76,365.51l.15.09a17.53,17.53,0,0,0,16.26,1.25c9.51-4.19,8.7-15,8.35-17.58-.07-.52-.13-1-.18-1.57-2.69-26.28-30.87-44-30.87-44-19.81-8.25-22.7,14-22.7,14-4.54,28.07,21.05,44.58,21.05,44.58l1-21.41L644.14,338l.62-7.12,5.73,2.48s-2.32-18.42,10.68-11.3l5.73,3.87-.16,5.88s-7.12-5.57-7.12,1.08l-.31,5.73,6.35,4-.62,7.12-6.35-3.25Z" fill="#fff"/><path d="M485.69,513.6c-.76-54.49,13.54-91,13.54-91L357.51,351C368.77,417.35,347,499.5,347,499.5l83.08,47.26Z" fill="#eb148e"/><polygon points="231.91 434.34 430.08 546.76 430.08 554.38 231.91 441.96 231.91 434.34" fill="#2f2e41"/><polygon points="231.91 434.34 430.08 546.76 430.08 554.38 231.91 441.96 231.91 434.34" fill="#fff" opacity="0.2"/><path d="M358.92,360.68l-127,73.66,27.17,15.41,101.64-60S360.32,370.41,358.92,360.68Z" fill="#2f2e41"/><path d="M263.83,452.44l96.9-57.11s0-3,0-5.57l-101.64,60Z" fill="#2f2e41"/><path d="M263.83,452.44l96.9-57.11s0-3,0-5.57l-101.64,60Z" opacity="0.2"/><polygon points="657.04 413.9 430.08 546.76 430.08 554.38 657.04 422.07 657.04 413.9" fill="#2f2e41"/><polygon points="657.04 413.9 430.08 546.76 430.08 554.38 657.04 422.07 657.04 413.9" opacity="0.2"/><path d="M551.8,317.73s3.82,1.4,9.28-1.74c0,0-4.11-.17-6.18-2.15Z" fill="#3f3d56"/><path d="M568.44,310.21s8.19.3,5.83,4.53c0,0-7.11,7.28-21.66,10.26a16.29,16.29,0,0,0-3-4.47l2.23-2.8S560.63,319.92,568.44,310.21Z" fill="#eb148e"/><path d="M568.44,310.21s8.19.3,5.83,4.53c0,0-7.11,7.28-21.66,10.26a16.29,16.29,0,0,0-3-4.47l2.23-2.8S560.63,319.92,568.44,310.21Z" fill="#fff" opacity="0.2"/><polygon points="439.54 530.49 439.54 455.58 496.49 487.16 496.49 562.07 439.54 530.49" fill="#d1d3d4"/><polygon points="503.3 484.14 496.49 487.16 496.49 562.07 503.3 557.42 503.3 484.14" fill="#bcbec0"/><polygon points="445.32 451.23 439.54 455.58 496.49 487.16 503.3 484.14 445.32 451.23" fill="#bcbec0"/><path d="M450.68,491.18s-.24-4.89,5.14-4.45a8.58,8.58,0,0,1,3.54,1.14l22.27,12.6s7.43,3.71,7.12,15.48l-.69,11.8a5.18,5.18,0,0,1-2.11,4c-1.49,1-3.93,1.55-7.72-.62,0,0-19.24-11-26.05-18.57,0,0-1.55-.62-1.71-6.65Z" fill="#fff"/><polygon points="466.47 513 466.47 502.48 473.43 511.15 466.47 513" fill="#d1d3d4"/><polygon points="266.29 489.84 231.91 509.66 260.12 525.49 294.05 504.91 266.29 489.84" fill="#2f2e41"/><polygon points="264.81 528.12 297.87 507.68 294.05 504.91 260.12 525.49 264.81 528.12" fill="#2f2e41"/><polygon points="264.81 528.12 297.87 507.68 294.05 504.91 260.12 525.49 264.81 528.12" opacity="0.2"/><polygon points="161.26 430.51 360.73 543.19 360.73 536.07 161.26 423.7 161.26 430.51" fill="#3f3d56"/><polygon points="161.26 430.51 360.73 543.19 360.73 536.07 161.26 423.7 161.26 430.51" fill="#fff" opacity="0.2"/><path d="M379.17,525.49c-1-.59-18.44,10.58-18.44,10.58v7.12L385.4,529Z" fill="#ccc"/><polygon points="299.05 501.32 317.05 490.25 321.56 492.81 304.23 504.24 299.05 501.32" opacity="0.2"/><polygon points="236.51 177.13 236.51 294.33 325.65 242.06 324.06 126.33 236.51 177.13" fill="#d1d3d4"/><polygon points="227.66 274.19 227.66 170.53 315.19 119.9 324.06 126.33 236.51 177.13 236.51 294.33 227.66 290.99 227.66 274.19" fill="#bcbec0"/><path d="M264.72,226l-1.4-33.1a8.29,8.29,0,0,1,4.38-7.67l25.41-13.58a8.29,8.29,0,0,1,12.19,7l1.34,33.87a8.28,8.28,0,0,1-4.54,7.72l-25.35,12.83A8.29,8.29,0,0,1,264.72,226Z" fill="#fff"/><circle cx="285.35" cy="205.06" r="9.49" fill="#d1d3d4"/><circle cx="296.81" cy="180.62" r="1.97" fill="#d1d3d4"/><polygon points="405.6 53.14 454.72 131.77 488.76 111.86 497.73 136.14 509.31 102.09 547.53 80.42 405.6 53.14" fill="#ccc"/><polygon points="478.95 119.42 497.73 136.14 488.76 111.86 477.95 118.18 478.95 119.42" fill="#ccc"/><polygon points="478.95 119.42 497.73 136.14 488.76 111.86 477.95 118.18 478.95 119.42" opacity="0.2"/><polygon points="488.76 111.86 406.81 53.86 509.31 102.09 497.73 136.14 488.76 111.86" opacity="0.2"/><polygon points="285.09 439.91 300.55 447.23 300.55 441.97 290.48 436.73 285.09 439.91" fill="#bcbec0"/><polygon points="338.32 421.1 300.55 441.97 300.55 447.23 338.32 427.11 338.32 421.1" fill="#bcbec0"/><polygon points="304.23 504.24 321.56 492.81 379.17 525.49 360.73 536.07 304.23 504.24" fill="#e6e7e8"/><polygon points="255.04 455.05 232.09 442.03 232.09 434.4 359.09 360.75 357.68 351.03 353.48 349.09 193.74 441.97 236.37 465.99 255.04 455.05" fill="#2f2e41"/><polygon points="255.04 455.05 232.09 442.03 232.09 434.4 359.09 360.75 357.68 351.03 353.48 349.09 193.74 441.97 236.37 465.99 255.04 455.05" opacity="0.21"/><path d="M460.38,372.63l-41.89-35.91s-41.2-39.7-58.88-7.47c0,0-16,25.22,26.07,64,0,0,51.55,59,77.36,51.59,0,0,17.15,2.89,39.85-26.82,0,0,40-61.5,49.94-85.85,0,0-8.67,9.49-32.61-9.9,0,0-14.85-12.39-10.73-18.58Z" fill="#eb148e"/><path d="M460.38,372.63l-41.89-35.91s-41.2-39.7-58.88-7.47c0,0-16,25.22,26.07,64,0,0,51.55,59,77.36,51.59,0,0,17.15,2.89,39.85-26.82,0,0,40-61.5,49.94-85.85,0,0-8.67,9.49-32.61-9.9,0,0-14.85-12.39-10.73-18.58Z" opacity="0.2"/><polygon points="328.03 414.6 338.32 421.1 300.55 441.97 290.48 436.73 328.03 414.6" fill="#d1d3d4"/><path d="M358.91,231s-27.15-73.36,52-91.26c0,0,56.08-7.31,72.18,48,0,0,4.89,12.15,2,33.31,0,0-8.62-34.75-39.58-38.36,0,0-26-3.09-35.3,32.14,0,0-2.05,9.92-1.67,16.17l-3,26.21s8.25,10.49,6.39,37.73c0,0,24.45,22.29,6.5,41.79,0,0-19.52-19.13-38.41-19.72a22,22,0,0,0-21.39,14.36c-1.78,4.75-2.78,11.22-1.18,19.6,0,0-41.17-14.24-9.91-59.43C347.6,291.53,321.31,260.22,358.91,231Z" fill="#2f2e41"/><ellipse cx="405.6" cy="244.42" rx="11.22" ry="12.88" transform="translate(-44.5 97.23) rotate(-12.97)" fill="#f9b499"/><path d="M462.44,299.58l-2.83-11s-25.36,2.4-36.49-15.37C423.12,273.19,425.49,294.33,462.44,299.58Z" fill="#f4a48e"/><ellipse cx="448.46" cy="236.18" rx="39.28" ry="54.01" transform="matrix(0.98, -0.19, 0.19, 0.98, -36.52, 88.89)" fill="#f9b499"/></svg>